<svg xmlns="http://www.w3.org/2000/svg" xmlns:xlink="http://www.w3.org/1999/xlink" width="500" zoomAndPan="magnify" viewBox="0 0 375 374.999991" height="500" preserveAspectRatio="xMidYMid meet" version="1.0"><defs><g/></defs><g fill="#000000" fill-opacity="1"><g transform="translate(84.567442, 244.121604)"><g><path d="M 12.546875 0 L 12.546875 -107.203125 L 49.53125 -107.203125 L 49.53125 -95.921875 L 49.953125 -95.921875 C 59.566406 -105.535156 69.804688 -110.34375 80.671875 -110.34375 C 88.472656 -110.34375 95.785156 -108.738281 102.609375 -105.53125 C 109.441406 -102.332031 114.597656 -97.390625 118.078125 -90.703125 C 128.941406 -103.796875 140.785156 -110.34375 153.609375 -110.34375 C 165.023438 -110.34375 174.84375 -107.140625 183.0625 -100.734375 C 191.289062 -94.328125 195.40625 -84.296875 195.40625 -70.640625 L 195.40625 0 L 158.40625 0 L 158.40625 -60.609375 C 158.40625 -66.316406 156.835938 -71.085938 153.703125 -74.921875 C 150.566406 -78.753906 145.867188 -80.671875 139.609375 -80.671875 C 134.171875 -80.671875 130.023438 -79.03125 127.171875 -75.75 C 124.316406 -72.476562 122.75 -68.546875 122.46875 -63.953125 L 122.46875 0 L 85.46875 0 L 85.46875 -60.609375 C 85.46875 -66.316406 83.898438 -71.085938 80.765625 -74.921875 C 77.640625 -78.753906 72.941406 -80.671875 66.671875 -80.671875 C 60.953125 -80.671875 56.664062 -78.894531 53.8125 -75.34375 C 50.957031 -71.789062 49.53125 -67.578125 49.53125 -62.703125 L 49.53125 0 Z M 12.546875 0 "/></g></g></g></svg>