<svg xmlns="http://www.w3.org/2000/svg" xmlns:xlink="http://www.w3.org/1999/xlink" width="200" zoomAndPan="magnify" viewBox="0 0 150 44.999999" height="60" preserveAspectRatio="xMidYMid meet" version="1.0"><defs><g/></defs><g fill="#ffffff" fill-opacity="1"><g transform="translate(2.215323, 34.272374)"><g><path d="M 2.25 0 L 2.25 -19.1875 L 8.859375 -19.1875 L 8.859375 -17.15625 L 8.9375 -17.15625 C 10.65625 -18.882812 12.488281 -19.75 14.4375 -19.75 C 15.832031 -19.75 17.140625 -19.457031 18.359375 -18.875 C 19.578125 -18.300781 20.5 -17.421875 21.125 -16.234375 C 23.070312 -18.578125 25.191406 -19.75 27.484375 -19.75 C 29.523438 -19.75 31.28125 -19.171875 32.75 -18.015625 C 34.21875 -16.867188 34.953125 -15.078125 34.953125 -12.640625 L 34.953125 0 L 28.34375 0 L 28.34375 -10.84375 C 28.34375 -11.863281 28.0625 -12.71875 27.5 -13.40625 C 26.9375 -14.09375 26.097656 -14.4375 24.984375 -14.4375 C 24.003906 -14.4375 23.257812 -14.140625 22.75 -13.546875 C 22.238281 -12.960938 21.957031 -12.257812 21.90625 -11.4375 L 21.90625 0 L 15.296875 0 L 15.296875 -10.84375 C 15.296875 -11.863281 15.015625 -12.71875 14.453125 -13.40625 C 13.890625 -14.09375 13.046875 -14.4375 11.921875 -14.4375 C 10.898438 -14.4375 10.132812 -14.117188 9.625 -13.484375 C 9.113281 -12.847656 8.859375 -12.09375 8.859375 -11.21875 L 8.859375 0 Z M 2.25 0 "/></g></g></g><g fill="#ffffff" fill-opacity="1"><g transform="translate(38.289545, 34.272374)"><g><path d="M 4.046875 -2.28125 C 1.921875 -4.175781 0.859375 -6.601562 0.859375 -9.5625 C 0.859375 -12.53125 1.96875 -14.96875 4.1875 -16.875 C 6.40625 -18.789062 9.144531 -19.75 12.40625 -19.75 C 15.625 -19.75 18.335938 -18.785156 20.546875 -16.859375 C 22.753906 -14.941406 23.859375 -12.507812 23.859375 -9.5625 C 23.859375 -6.625 22.78125 -4.203125 20.625 -2.296875 C 18.46875 -0.390625 15.726562 0.5625 12.40625 0.5625 C 8.96875 0.5625 6.179688 -0.382812 4.046875 -2.28125 Z M 9.171875 -12.8125 C 8.316406 -11.96875 7.890625 -10.882812 7.890625 -9.5625 C 7.890625 -8.25 8.300781 -7.171875 9.125 -6.328125 C 9.945312 -5.492188 11.03125 -5.078125 12.375 -5.078125 C 13.675781 -5.078125 14.742188 -5.5 15.578125 -6.34375 C 16.410156 -7.195312 16.828125 -8.273438 16.828125 -9.578125 C 16.828125 -10.890625 16.394531 -11.96875 15.53125 -12.8125 C 14.675781 -13.664062 13.625 -14.09375 12.375 -14.09375 C 11.101562 -14.09375 10.035156 -13.664062 9.171875 -12.8125 Z M 9.171875 -12.8125 "/></g></g></g><g fill="#ffffff" fill-opacity="1"><g transform="translate(62.251729, 34.272374)"><g><path d="M 3.359375 -19.1875 L 3.359375 -26.328125 L 9.984375 -26.328125 L 9.984375 -19.1875 L 14.015625 -19.1875 L 14.015625 -14.140625 L 9.984375 -14.140625 L 9.984375 -8.03125 C 9.984375 -6.269531 10.484375 -5.390625 11.484375 -5.390625 C 11.734375 -5.390625 11.992188 -5.4375 12.265625 -5.53125 C 12.535156 -5.632812 12.75 -5.734375 12.90625 -5.828125 L 13.125 -5.984375 L 14.765625 -0.640625 C 13.347656 0.160156 11.726562 0.5625 9.90625 0.5625 C 8.65625 0.5625 7.582031 0.34375 6.6875 -0.09375 C 5.789062 -0.53125 5.113281 -1.113281 4.65625 -1.84375 C 4.195312 -2.582031 3.863281 -3.359375 3.65625 -4.171875 C 3.457031 -4.984375 3.359375 -5.847656 3.359375 -6.765625 L 3.359375 -14.140625 L 0.59375 -14.140625 L 0.59375 -19.1875 Z M 3.359375 -19.1875 "/></g></g></g><g fill="#ffffff" fill-opacity="1"><g transform="translate(76.270071, 34.272374)"><g><path d="M 2.875 -29.875 C 3.644531 -30.644531 4.566406 -31.03125 5.640625 -31.03125 C 6.710938 -31.03125 7.632812 -30.644531 8.40625 -29.875 C 9.1875 -29.101562 9.578125 -28.179688 9.578125 -27.109375 C 9.578125 -26.035156 9.1875 -25.113281 8.40625 -24.34375 C 7.632812 -23.570312 6.710938 -23.1875 5.640625 -23.1875 C 4.566406 -23.1875 3.644531 -23.570312 2.875 -24.34375 C 2.101562 -25.113281 1.71875 -26.035156 1.71875 -27.109375 C 1.71875 -28.179688 2.101562 -29.101562 2.875 -29.875 Z M 2.25 -19.1875 L 2.25 0 L 8.859375 0 L 8.859375 -19.1875 Z M 2.25 -19.1875 "/></g></g></g><g fill="#ffffff" fill-opacity="1"><g transform="translate(86.811818, 34.272374)"><g><path d="M 4.046875 -2.28125 C 1.921875 -4.175781 0.859375 -6.601562 0.859375 -9.5625 C 0.859375 -12.53125 1.96875 -14.96875 4.1875 -16.875 C 6.40625 -18.789062 9.144531 -19.75 12.40625 -19.75 C 15.625 -19.75 18.335938 -18.785156 20.546875 -16.859375 C 22.753906 -14.941406 23.859375 -12.507812 23.859375 -9.5625 C 23.859375 -6.625 22.78125 -4.203125 20.625 -2.296875 C 18.46875 -0.390625 15.726562 0.5625 12.40625 0.5625 C 8.96875 0.5625 6.179688 -0.382812 4.046875 -2.28125 Z M 9.171875 -12.8125 C 8.316406 -11.96875 7.890625 -10.882812 7.890625 -9.5625 C 7.890625 -8.25 8.300781 -7.171875 9.125 -6.328125 C 9.945312 -5.492188 11.03125 -5.078125 12.375 -5.078125 C 13.675781 -5.078125 14.742188 -5.5 15.578125 -6.34375 C 16.410156 -7.195312 16.828125 -8.273438 16.828125 -9.578125 C 16.828125 -10.890625 16.394531 -11.96875 15.53125 -12.8125 C 14.675781 -13.664062 13.625 -14.09375 12.375 -14.09375 C 11.101562 -14.09375 10.035156 -13.664062 9.171875 -12.8125 Z M 9.171875 -12.8125 "/></g></g></g><g fill="#ffffff" fill-opacity="1"><g transform="translate(110.774005, 34.272374)"><g><path d="M 2.25 0 L 2.25 -19.1875 L 8.859375 -19.1875 L 8.859375 -17.15625 L 8.9375 -17.15625 C 10.65625 -18.882812 12.488281 -19.75 14.4375 -19.75 C 15.382812 -19.75 16.320312 -19.625 17.25 -19.375 C 18.1875 -19.125 19.082031 -18.734375 19.9375 -18.203125 C 20.800781 -17.679688 21.5 -16.941406 22.03125 -15.984375 C 22.570312 -15.023438 22.84375 -13.910156 22.84375 -12.640625 L 22.84375 0 L 16.234375 0 L 16.234375 -10.84375 C 16.234375 -11.84375 15.914062 -12.710938 15.28125 -13.453125 C 14.644531 -14.203125 13.8125 -14.578125 12.78125 -14.578125 C 11.789062 -14.578125 10.890625 -14.191406 10.078125 -13.421875 C 9.265625 -12.648438 8.859375 -11.789062 8.859375 -10.84375 L 8.859375 0 Z M 2.25 0 "/></g></g></g><g fill="#ffffff" fill-opacity="1"><g transform="translate(134.736193, 34.272374)"><g><path d="M 6.5 -8 C 7.695312 -8 8.710938 -7.582031 9.546875 -6.75 C 10.390625 -5.914062 10.8125 -4.898438 10.8125 -3.703125 C 10.8125 -2.523438 10.390625 -1.519531 9.546875 -0.6875 C 8.710938 0.144531 7.695312 0.5625 6.5 0.5625 C 5.332031 0.5625 4.332031 0.144531 3.5 -0.6875 C 2.664062 -1.519531 2.25 -2.523438 2.25 -3.703125 C 2.25 -4.898438 2.664062 -5.914062 3.5 -6.75 C 4.332031 -7.582031 5.332031 -8 6.5 -8 Z M 6.5 -8 "/></g></g></g></svg>